<?xml version="1.0" encoding="UTF-8" standalone="yes"?><svg xmlns="http://www.w3.org/2000/svg" xmlns:xlink="http://www.w3.org/1999/xlink" height="345px" style="width:740px;height:345px;" version="1.1" viewBox="0 0 740 345" width="740px"><defs/><g><polygon fill="#FFCC00" points="375,13.5,375,38.8105,609,38.8105,609,23.5,599,13.5,375,13.5" style="stroke: #FF6665; stroke-width: 1.0;"/><polygon fill="#FFCC00" points="375,13.5,375,22,305.32,26,375,30,375,38.8105,609,38.8105,609,23.5,599,13.5,375,13.5" style="stroke: #FF6665; stroke-width: 1.0;"/><line style="stroke: #FF6665; stroke-width: 1.0;" x1="599" x2="599" y1="13.5" y2="23.5"/><line style="stroke: #FF6665; stroke-width: 1.0;" x1="609" x2="599" y1="23.5" y2="23.5"/><text fill="#000000" font-family="sans-serif" font-size="13" lengthAdjust="spacingAndGlyphs" textLength="213" x="381" y="31.0684">Создает и связывает компоненты</text><polygon fill="#FFCC00" points="359,105,359,145.6211,739,145.6211,739,115,729,105,359,105" style="stroke: #FF6665; stroke-width: 1.0;"/><polygon fill="#FFCC00" points="359,105,359,121.5,289.191,125.5,359,129.5,359,145.6211,739,145.6211,739,115,729,105,359,105" style="stroke: #FF6665; stroke-width: 1.0;"/><line style="stroke: #FF6665; stroke-width: 1.0;" x1="729" x2="729" y1="105" y2="115"/><line style="stroke: #FF6665; stroke-width: 1.0;" x1="739" x2="729" y1="115" y2="115"/><text fill="#000000" font-family="sans-serif" font-size="13" lengthAdjust="spacingAndGlyphs" textLength="359" x="365" y="122.5684">Сопоставляет URL со связанными двусторонней связью</text><text fill="#000000" font-family="sans-serif" font-size="13" lengthAdjust="spacingAndGlyphs" textLength="178" x="369" y="137.8789">Контроллером и Шаблоном</text><polygon fill="#FFCC00" points="6,304,6,344.6211,192,344.6211,192,314,182,304,6,304" style="stroke: #FF6665; stroke-width: 1.0;"/><polygon fill="#FFCC00" points="6,304,6,344.6211,192,344.6211,192,314,182,304,103,304,99,243.431,95,304,6,304" style="stroke: #FF6665; stroke-width: 1.0;"/><line style="stroke: #FF6665; stroke-width: 1.0;" x1="182" x2="182" y1="304" y2="314"/><line style="stroke: #FF6665; stroke-width: 1.0;" x1="192" x2="182" y1="314" y2="314"/><text fill="#000000" font-family="sans-serif" font-size="13" lengthAdjust="spacingAndGlyphs" textLength="100" x="12" y="321.5684">Бизнес-логика,</text><text fill="#000000" font-family="sans-serif" font-size="13" lengthAdjust="spacingAndGlyphs" textLength="161" x="16" y="336.8789">манипуляции с моделью</text><polygon fill="#FFCC00" points="321,304,321,344.6211,507,344.6211,507,314,497,304,321,304" style="stroke: #FF6665; stroke-width: 1.0;"/><polygon fill="#FFCC00" points="321,304,321,344.6211,507,344.6211,507,314,497,304,418,304,414,243.431,410,304,321,304" style="stroke: #FF6665; stroke-width: 1.0;"/><line style="stroke: #FF6665; stroke-width: 1.0;" x1="497" x2="497" y1="304" y2="314"/><line style="stroke: #FF6665; stroke-width: 1.0;" x1="507" x2="497" y1="314" y2="314"/><text fill="#000000" font-family="sans-serif" font-size="13" lengthAdjust="spacingAndGlyphs" textLength="150" x="327" y="321.5684">Логика представления,</text><text fill="#000000" font-family="sans-serif" font-size="13" lengthAdjust="spacingAndGlyphs" textLength="161" x="331" y="336.8789">манипуляции с моделью</text><rect fill="#FFFFFF" height="36.4883" style="stroke: #FD891C; stroke-width: 1.5;" width="98" x="207" y="8"/><rect fill="#FFFFFF" height="5" style="stroke: #FD891C; stroke-width: 1.5;" width="10" x="202" y="13"/><rect fill="#FFFFFF" height="5" style="stroke: #FD891C; stroke-width: 1.5;" width="10" x="202" y="34.4883"/><text fill="#000000" font-family="sans-serif" font-size="14" lengthAdjust="spacingAndGlyphs" textLength="78" x="217" y="31.5352">Application</text><rect fill="#FFFFFF" height="36.4883" style="stroke: #FD891C; stroke-width: 1.5;" width="66" x="223" y="107.5"/><rect fill="#FFFFFF" height="5" style="stroke: #FD891C; stroke-width: 1.5;" width="10" x="218" y="112.5"/><rect fill="#FFFFFF" height="5" style="stroke: #FD891C; stroke-width: 1.5;" width="10" x="218" y="133.9883"/><text fill="#000000" font-family="sans-serif" font-size="14" lengthAdjust="spacingAndGlyphs" textLength="46" x="233" y="131.0352">Router</text><rect fill="#FFFFFF" height="36.4883" style="stroke: #FD891C; stroke-width: 1.5;" width="111" x="43.5" y="207"/><rect fill="#FFFFFF" height="5" style="stroke: #FD891C; stroke-width: 1.5;" width="10" x="38.5" y="212"/><rect fill="#FFFFFF" height="5" style="stroke: #FD891C; stroke-width: 1.5;" width="10" x="38.5" y="233.4883"/><text fill="#000000" font-family="sans-serif" font-size="14" lengthAdjust="spacingAndGlyphs" textLength="91" x="53.5" y="230.5352">PhoneListCtrl</text><rect fill="#FFFFFF" height="36.4883" style="stroke: #FD891C; stroke-width: 1.5;" width="169" x="329.5" y="207"/><rect fill="#FFFFFF" height="5" style="stroke: #FD891C; stroke-width: 1.5;" width="10" x="324.5" y="212"/><rect fill="#FFFFFF" height="5" style="stroke: #FD891C; stroke-width: 1.5;" width="10" x="324.5" y="233.4883"/><text fill="#000000" font-family="sans-serif" font-size="14" lengthAdjust="spacingAndGlyphs" textLength="149" x="339.5" y="230.5352">catalogTemplate.html</text><path d="M256,44.431 C256,60.514 256,84.484 256,102.005 " fill="none" style="stroke: #808285; stroke-width: 1.0;"/><polygon fill="#808285" points="256,107.22,260,98.22,256,102.22,252,98.22,256,107.22" style="stroke: #808285; stroke-width: 1.0;"/><path d="M228.293,143.707 C201.052,160.624 159.511,186.421 130.906,204.186 " fill="none" style="stroke: #808285; stroke-width: 1.0;"/><polygon fill="#808285" points="126.43,206.965,136.1857,205.6133,130.6771,204.3264,131.964,198.8179,126.43,206.965" style="stroke: #808285; stroke-width: 1.0;"/><path d="M283.884,143.707 C311.298,160.624 353.104,186.421 381.891,204.186 " fill="none" style="stroke: #808285; stroke-width: 1.0;"/><polygon fill="#808285" points="386.395,206.965,380.8359,198.835,382.1398,204.3396,376.6352,205.6434,386.395,206.965" style="stroke: #808285; stroke-width: 1.0;"/><path d="M159.776,225 C206.445,225 271.601,225 324.267,225 " fill="none" style="stroke: #808285; stroke-width: 1.0; stroke-dasharray: 7.0,7.0;"/><polygon fill="#808285" points="329.324,225,320.324,221,324.324,225,320.324,229,329.324,225" style="stroke: #808285; stroke-width: 1.0;"/><polygon fill="#808285" points="154.591,225,163.591,229,159.591,225,163.591,221,154.591,225" style="stroke: #808285; stroke-width: 1.0;"/><text fill="#000000" font-family="sans-serif" font-size="13" lengthAdjust="spacingAndGlyphs" textLength="138" x="173" y="218.5684">two-way data binding</text></g></svg>