<?xml version="1.0" encoding="UTF-8" standalone="yes"?><svg xmlns="http://www.w3.org/2000/svg" xmlns:xlink="http://www.w3.org/1999/xlink" height="76px" style="width:609px;height:76px;" version="1.1" viewBox="0 0 609 76" width="609px"><defs/><g><rect fill="#FFFFFF" height="36.4883" style="stroke: #FD891C; stroke-width: 1.5;" width="66" x="6" y="18.4387"/><rect fill="#FFFFFF" height="5" style="stroke: #FD891C; stroke-width: 1.5;" width="10" x="1" y="23.4387"/><rect fill="#FFFFFF" height="5" style="stroke: #FD891C; stroke-width: 1.5;" width="10" x="1" y="44.927"/><text fill="#000000" font-family="sans-serif" font-size="14" lengthAdjust="spacingAndGlyphs" textLength="46" x="16" y="41.9739">Router</text><rect fill="#FFFFFF" height="36.4883" style="stroke: #FD891C; stroke-width: 1.5;" width="124" x="132" y="18.4387"/><rect fill="#FFFFFF" height="5" style="stroke: #FD891C; stroke-width: 1.5;" width="10" x="127" y="23.4387"/><rect fill="#FFFFFF" height="5" style="stroke: #FD891C; stroke-width: 1.5;" width="10" x="127" y="44.927"/><text fill="#000000" font-family="sans-serif" font-size="14" lengthAdjust="spacingAndGlyphs" textLength="104" x="142" y="41.9739">AppStateModel</text><rect fill="#FFFFFF" height="36.4883" style="stroke: #FD891C; stroke-width: 1.5;" width="52" x="377" y="18.4387"/><rect fill="#FFFFFF" height="5" style="stroke: #FD891C; stroke-width: 1.5;" width="10" x="372" y="23.4387"/><rect fill="#FFFFFF" height="5" style="stroke: #FD891C; stroke-width: 1.5;" width="10" x="372" y="44.927"/><text fill="#000000" font-family="sans-serif" font-size="14" lengthAdjust="spacingAndGlyphs" textLength="32" x="387" y="41.9739">View</text><rect fill="#FFFFFF" height="36.4883" style="stroke: #FD891C; stroke-width: 1.5;" width="119" x="489" y="18.4387"/><rect fill="#FFFFFF" height="5" style="stroke: #FD891C; stroke-width: 1.5;" width="10" x="484" y="23.4387"/><rect fill="#FFFFFF" height="5" style="stroke: #FD891C; stroke-width: 1.5;" width="10" x="484" y="44.927"/><text fill="#000000" font-family="sans-serif" font-size="14" lengthAdjust="spacingAndGlyphs" textLength="99" x="499" y="41.9739">Template.html</text><path d="M72.0738,36.4387 C87.9327,36.4387 107.69,36.4387 126.608,36.4387 " fill="none" style="stroke: #808285; stroke-width: 1.0;"/><polygon fill="#808285" points="131.917,36.4387,122.917,32.4387,126.917,36.4387,122.917,40.4387,131.917,36.4387" style="stroke: #808285; stroke-width: 1.0;"/><text fill="#000000" font-family="sans-serif" font-size="13" lengthAdjust="spacingAndGlyphs" textLength="54" x="70.0299" y="50.1353">set state</text><path d="M261.516,48.4358 C298.566,50.0075 342.898,49.1186 371.713,45.7692 " fill="none" style="stroke: #808285; stroke-width: 1.0;"/><polygon fill="#808285" points="376.908,45.1152,367.4782,42.2729,371.9473,45.7409,368.4793,50.21,376.908,45.1152" style="stroke: #808285; stroke-width: 1.0;"/><polygon fill="#808285" points="256.267,48.1941,265.0735,52.6039,261.2617,48.4241,265.4415,44.6123,256.267,48.1941" style="stroke: #808285; stroke-width: 1.0;"/><text fill="#000000" font-family="sans-serif" font-size="13" lengthAdjust="spacingAndGlyphs" textLength="150" x="228.0021" y="75.3737">get/set username, state</text><path d="M256.267,23.9918 C294.358,21.985 341.662,22.8464 371.846,26.5759 " fill="none" style="stroke: #808285; stroke-width: 1.0; stroke-dasharray: 7.0,7.0;"/><polygon fill="#808285" points="376.908,27.2519,368.5162,22.0965,371.9519,26.5905,367.4579,30.0262,376.908,27.2519" style="stroke: #808285; stroke-width: 1.0;"/><text fill="#000000" font-family="sans-serif" font-size="13" lengthAdjust="spacingAndGlyphs" textLength="136" x="233.8112" y="12.5072">listen to state change</text><path d="M429.325,46.4337 C444.402,48.552 464.272,49.4487 483.407,49.124 " fill="none" style="stroke: #808285; stroke-width: 1.0;"/><polygon fill="#808285" points="488.78,49,479.6909,45.2068,483.7813,49.1143,479.8738,53.2047,488.78,49" style="stroke: #808285; stroke-width: 1.0;"/><text fill="#000000" font-family="sans-serif" font-size="13" lengthAdjust="spacingAndGlyphs" textLength="40" x="440.9326" y="63.5344">render</text><path d="M434.52,25.1561 C450.319,23.2341 470.155,22.5616 488.78,23.1386 " fill="none" style="stroke: #808285; stroke-width: 1.0; stroke-dasharray: 7.0,7.0;"/><polygon fill="#808285" points="429.325,25.8558,438.7782,28.6192,434.2803,25.1887,437.7108,20.6907,429.325,25.8558" style="stroke: #808285; stroke-width: 1.0;"/><text fill="#000000" font-family="sans-serif" font-size="13" lengthAdjust="spacingAndGlyphs" textLength="76" x="431.8892" y="7.6811">DOM events</text></g></svg>