<?xml version="1.0" encoding="UTF-8" standalone="yes"?><svg xmlns="http://www.w3.org/2000/svg" xmlns:xlink="http://www.w3.org/1999/xlink" height="112px" style="width:359px;height:112px;" version="1.1" viewBox="0 0 359 112" width="359px"><defs/><g><polygon fill="#FFFFFF" points="86,24,141,24,148,46.4883,266,46.4883,266,111,86,111,86,24" style="stroke: #000000; stroke-width: 2.0;"/><line style="stroke: #000000; stroke-width: 2.0;" x1="86" x2="148" y1="46.4883" y2="46.4883"/><text fill="#000000" font-family="sans-serif" font-size="14" font-weight="bold" lengthAdjust="spacingAndGlyphs" textLength="49" x="90" y="39.5352">Foobar</text><rect fill="#FFFFFF" height="36.4883" style="stroke: #FD891C; stroke-width: 1.5;" width="46" x="102" y="59"/><rect fill="#FFFFFF" height="5" style="stroke: #FD891C; stroke-width: 1.5;" width="10" x="97" y="64"/><rect fill="#FFFFFF" height="5" style="stroke: #FD891C; stroke-width: 1.5;" width="10" x="97" y="85.4883"/><text fill="#000000" font-family="sans-serif" font-size="14" lengthAdjust="spacingAndGlyphs" textLength="26" x="112" y="82.5352">Foo</text><rect fill="#FFFFFF" height="36.4883" style="stroke: #FD891C; stroke-width: 1.5;" width="42" x="208" y="59"/><rect fill="#FFFFFF" height="5" style="stroke: #FD891C; stroke-width: 1.5;" width="10" x="203" y="64"/><rect fill="#FFFFFF" height="5" style="stroke: #FD891C; stroke-width: 1.5;" width="10" x="203" y="85.4883"/><text fill="#000000" font-family="sans-serif" font-size="14" lengthAdjust="spacingAndGlyphs" textLength="22" x="218" y="82.5352">Bar</text><ellipse cx="24" cy="69" fill="#FEFECE" rx="8" ry="8" style="stroke: #A80036; stroke-width: 2.0;"/><text fill="#000000" font-family="sans-serif" font-size="14" lengthAdjust="spacingAndGlyphs" textLength="36" x="6" y="91.5352">Input</text><ellipse cx="334" cy="69" fill="#FEFECE" rx="8" ry="8" style="stroke: #A80036; stroke-width: 2.0;"/><text fill="#000000" font-family="sans-serif" font-size="14" lengthAdjust="spacingAndGlyphs" textLength="48" x="310" y="91.5352">Output</text><path d="M148.132,87.7259 C164.275,90.2743 186.17,90.4163 202.953,88.1518 " fill="none" style="stroke: #808285; stroke-width: 1.0;"/><polygon fill="#808285" points="207.985,87.3718,198.4786,84.7973,203.044,88.1375,199.7037,92.7029,207.985,87.3718" style="stroke: #808285; stroke-width: 1.0;"/><path d="M153.315,64.8875 C170.531,62.7164 192.376,63.0932 207.985,66.0181 " fill="none" style="stroke: #808285; stroke-width: 1.0;"/><polygon fill="#808285" points="148.132,65.6432,157.615,68.3028,153.0797,64.9218,156.4607,60.3865,148.132,65.6432" style="stroke: #808285; stroke-width: 1.0;"/><path d="M42.2445,77 C57.2056,77 79.1298,77 96.509,77 " fill="none" style="stroke: #808285; stroke-width: 1.0;"/><polygon fill="#808285" points="101.7439,77,92.7439,73,96.7439,77,92.7439,81,101.7439,77" style="stroke: #808285; stroke-width: 1.0;"/><path d="M250.349,77 C265.864,77 287.42,77 304.627,77 " fill="none" style="stroke: #808285; stroke-width: 1.0;"/><polygon fill="#808285" points="309.817,77,300.817,73,304.817,77,300.817,81,309.817,77" style="stroke: #808285; stroke-width: 1.0;"/></g></svg>