<?xml version="1.0" encoding="UTF-8" standalone="yes"?><svg xmlns="http://www.w3.org/2000/svg" xmlns:xlink="http://www.w3.org/1999/xlink" height="45px" style="width:257px;height:45px;" version="1.1" viewBox="0 0 257 45" width="257px"><defs/><g><ellipse cx="24" cy="18" fill="#FEFECE" rx="8" ry="8" style="stroke: #A80036; stroke-width: 2.0;"/><text fill="#000000" font-family="sans-serif" font-size="14" lengthAdjust="spacingAndGlyphs" textLength="36" x="6" y="40.5352">Input</text><ellipse cx="232" cy="18" fill="#FEFECE" rx="8" ry="8" style="stroke: #A80036; stroke-width: 2.0;"/><text fill="#000000" font-family="sans-serif" font-size="14" lengthAdjust="spacingAndGlyphs" textLength="48" x="208" y="40.5352">Output</text><rect fill="#FFFFFF" height="36.4883" style="stroke: #FD891C; stroke-width: 1.5;" width="46" x="102" y="8"/><rect fill="#FFFFFF" height="5" style="stroke: #FD891C; stroke-width: 1.5;" width="10" x="97" y="13"/><rect fill="#FFFFFF" height="5" style="stroke: #FD891C; stroke-width: 1.5;" width="10" x="97" y="34.4883"/><text fill="#000000" font-family="sans-serif" font-size="14" lengthAdjust="spacingAndGlyphs" textLength="26" x="112" y="31.5352">Foo</text><path d="M42.2445,26 C57.2056,26 79.1298,26 96.509,26 " fill="none" style="stroke: #808285; stroke-width: 1.0;"/><polygon fill="#808285" points="101.7439,26,92.7439,22,96.7439,26,92.7439,30,101.7439,26" style="stroke: #808285; stroke-width: 1.0;"/><path d="M148.011,26 C163.925,26 185.557,26 202.746,26 " fill="none" style="stroke: #808285; stroke-width: 1.0;"/><polygon fill="#808285" points="207.927,26,198.927,22,202.927,26,198.927,30,207.927,26" style="stroke: #808285; stroke-width: 1.0;"/></g></svg>