<?xml version="1.0" encoding="UTF-8" standalone="yes"?><svg xmlns="http://www.w3.org/2000/svg" xmlns:xlink="http://www.w3.org/1999/xlink" height="81px" style="width:368px;height:81px;" version="1.1" viewBox="0 0 368 81" width="368px"><defs/><g><rect fill="#FFFFFF" height="36.4883" style="stroke: #FD891C; stroke-width: 1.5;" width="46" x="6" y="8"/><rect fill="#FFFFFF" height="5" style="stroke: #FD891C; stroke-width: 1.5;" width="10" x="1" y="13"/><rect fill="#FFFFFF" height="5" style="stroke: #FD891C; stroke-width: 1.5;" width="10" x="1" y="34.4883"/><text fill="#000000" font-family="sans-serif" font-size="14" lengthAdjust="spacingAndGlyphs" textLength="26" x="16" y="31.5352">Foo</text><rect fill="#FFFFFF" height="36.4883" style="stroke: #FD891C; stroke-width: 1.5;" width="42" x="112" y="8"/><rect fill="#FFFFFF" height="5" style="stroke: #FD891C; stroke-width: 1.5;" width="10" x="107" y="13"/><rect fill="#FFFFFF" height="5" style="stroke: #FD891C; stroke-width: 1.5;" width="10" x="107" y="34.4883"/><text fill="#000000" font-family="sans-serif" font-size="14" lengthAdjust="spacingAndGlyphs" textLength="22" x="122" y="31.5352">Bar</text><rect fill="#FFFFFF" height="36.4883" style="stroke: #FD891C; stroke-width: 1.5;" width="44" x="214" y="8"/><rect fill="#FFFFFF" height="5" style="stroke: #FD891C; stroke-width: 1.5;" width="10" x="209" y="13"/><rect fill="#FFFFFF" height="5" style="stroke: #FD891C; stroke-width: 1.5;" width="10" x="209" y="34.4883"/><text fill="#000000" font-family="sans-serif" font-size="14" lengthAdjust="spacingAndGlyphs" textLength="24" x="224" y="31.5352">Baz</text><rect fill="#FFFFFF" height="36.4883" style="stroke: #FD891C; stroke-width: 1.5;" width="49" x="318" y="44"/><rect fill="#FFFFFF" height="5" style="stroke: #FD891C; stroke-width: 1.5;" width="10" x="313" y="49"/><rect fill="#FFFFFF" height="5" style="stroke: #FD891C; stroke-width: 1.5;" width="10" x="313" y="70.4883"/><text fill="#000000" font-family="sans-serif" font-size="14" lengthAdjust="spacingAndGlyphs" textLength="29" x="328" y="67.5352">Qux</text><path d="M52.1325,36.7259 C68.2745,39.2743 90.1695,39.4163 106.953,37.1518 " fill="none" style="stroke: #808285; stroke-width: 1.0;"/><polygon fill="#808285" points="111.985,36.3718,102.4786,33.7973,107.044,37.1375,103.7037,41.7029,111.985,36.3718" style="stroke: #808285; stroke-width: 1.0;"/><path d="M57.3148,13.8875 C74.5308,11.7164 96.3758,12.0932 111.985,15.0181 " fill="none" style="stroke: #808285; stroke-width: 1.0;"/><polygon fill="#808285" points="52.1325,14.6432,61.6155,17.3025,57.0802,13.9216,60.461,9.3863,52.1325,14.6432" style="stroke: #808285; stroke-width: 1.0;"/><path d="M154.439,26 C170.11,26 191.854,26 208.802,26 " fill="none" style="stroke: #808285; stroke-width: 1.0;"/><polygon fill="#808285" points="213.896,26,204.896,22,208.896,26,204.896,30,213.896,26" style="stroke: #808285; stroke-width: 1.0;"/><path d="M263.189,35.0219 C278.264,40.2155 297.231,46.7494 312.722,52.0862 " fill="none" style="stroke: #808285; stroke-width: 1.0;"/><polygon fill="#808285" points="317.832,53.8465,310.6256,47.1332,313.1046,52.218,308.0199,54.697,317.832,53.8465" style="stroke: #808285; stroke-width: 1.0;"/><polygon fill="#808285" points="258.147,33.2851,265.3515,40.0004,262.8739,34.915,267.9593,32.4373,258.147,33.2851" style="stroke: #808285; stroke-width: 1.0;"/><path d="M312.582,65.5068 C268.69,70.0179 182.865,75.6521 112,61 C92.7682,57.0236 72.4579,48.3918 56.862,40.6958 " fill="none" style="stroke: #808285; stroke-width: 1.0;"/><polygon fill="#808285" points="52.1797,38.3436,58.4263,45.9581,56.6476,40.5881,62.0175,38.8094,52.1797,38.3436" style="stroke: #808285; stroke-width: 1.0;"/><polygon fill="#808285" points="317.722,64.9636,308.3513,61.9321,312.7497,65.4893,309.1925,69.8877,317.722,64.9636" style="stroke: #808285; stroke-width: 1.0;"/></g></svg>