<?xml version="1.0" encoding="UTF-8" standalone="yes"?><svg xmlns="http://www.w3.org/2000/svg" xmlns:xlink="http://www.w3.org/1999/xlink" height="280px" style="width:581px;height:280px;" version="1.1" viewBox="0 0 581 280" width="581px"><defs/><g><polygon fill="#FFCC00" points="298,8,298,48.6211,580,48.6211,580,18,570,8,298,8" style="stroke: #FF6665; stroke-width: 1.0;"/><polygon fill="#FFCC00" points="298,8,298,24.5,228.581,28.5,298,32.5,298,48.6211,580,48.6211,580,18,570,8,298,8" style="stroke: #FF6665; stroke-width: 1.0;"/><line style="stroke: #FF6665; stroke-width: 1.0;" x1="570" x2="570" y1="8" y2="18"/><line style="stroke: #FF6665; stroke-width: 1.0;" x1="580" x2="570" y1="18" y2="18"/><text fill="#000000" font-family="sans-serif" font-size="13" lengthAdjust="spacingAndGlyphs" textLength="139" x="304" y="25.5684">Корневой компонент,</text><text fill="#000000" font-family="sans-serif" font-size="13" lengthAdjust="spacingAndGlyphs" textLength="257" x="308" y="40.8789">обрабатывает добавление комментария</text><polygon fill="#FFCC00" points="129,239,129,279.6211,391,279.6211,391,249,381,239,129,239" style="stroke: #FF6665; stroke-width: 1.0;"/><polygon fill="#FFCC00" points="129,239,129,279.6211,391,279.6211,391,249,381,239,262.959,239,254.911,162.238,254.959,239,129,239" style="stroke: #FF6665; stroke-width: 1.0;"/><line style="stroke: #FF6665; stroke-width: 1.0;" x1="381" x2="381" y1="239" y2="249"/><line style="stroke: #FF6665; stroke-width: 1.0;" x1="391" x2="381" y1="249" y2="249"/><text fill="#000000" font-family="sans-serif" font-size="13" lengthAdjust="spacingAndGlyphs" textLength="241" x="135" y="256.5684">Вызывает колбэк по отправке формы,</text><text fill="#000000" font-family="sans-serif" font-size="13" lengthAdjust="spacingAndGlyphs" textLength="139" x="139" y="271.8789">проталкивает данные</text><rect fill="#FFFFFF" height="36.4883" style="stroke: #FD891C; stroke-width: 1.5;" width="113" x="115.5" y="10.5"/><rect fill="#FFFFFF" height="5" style="stroke: #FD891C; stroke-width: 1.5;" width="10" x="110.5" y="15.5"/><rect fill="#FFFFFF" height="5" style="stroke: #FD891C; stroke-width: 1.5;" width="10" x="110.5" y="36.9883"/><text fill="#000000" font-family="sans-serif" font-size="14" lengthAdjust="spacingAndGlyphs" textLength="93" x="125.5" y="34.0352">CommentBox</text><rect fill="#FFFFFF" height="36.4883" style="stroke: #FD891C; stroke-width: 1.5;" width="110" x="6" y="126"/><rect fill="#FFFFFF" height="5" style="stroke: #FD891C; stroke-width: 1.5;" width="10" x="1" y="131"/><rect fill="#FFFFFF" height="5" style="stroke: #FD891C; stroke-width: 1.5;" width="10" x="1" y="152.4883"/><text fill="#000000" font-family="sans-serif" font-size="14" lengthAdjust="spacingAndGlyphs" textLength="90" x="16" y="149.5352">CommentList</text><rect fill="#FFFFFF" height="36.4883" style="stroke: #FD891C; stroke-width: 1.5;" width="87" x="6.5" y="241.5"/><rect fill="#FFFFFF" height="5" style="stroke: #FD891C; stroke-width: 1.5;" width="10" x="1.5" y="246.5"/><rect fill="#FFFFFF" height="5" style="stroke: #FD891C; stroke-width: 1.5;" width="10" x="1.5" y="267.9883"/><text fill="#000000" font-family="sans-serif" font-size="14" lengthAdjust="spacingAndGlyphs" textLength="67" x="16.5" y="265.0352">Comment</text><rect fill="#FFFFFF" height="36.4883" style="stroke: #FD891C; stroke-width: 1.5;" width="123" x="192.5" y="126"/><rect fill="#FFFFFF" height="5" style="stroke: #FD891C; stroke-width: 1.5;" width="10" x="187.5" y="131"/><rect fill="#FFFFFF" height="5" style="stroke: #FD891C; stroke-width: 1.5;" width="10" x="187.5" y="152.4883"/><text fill="#000000" font-family="sans-serif" font-size="14" lengthAdjust="spacingAndGlyphs" textLength="103" x="202.5" y="149.5352">CommentForm</text><path d="M150.279,46.533 C139.039,55.714 125.335,67.496 114,79 C100.8097,92.387 87.3191,108.723 77.2496,121.54 " fill="none" style="stroke: #808285; stroke-width: 1.0;"/><polygon fill="#808285" points="73.9713,125.742,82.6612,121.1068,77.047,121.7999,76.3538,116.1857,73.9713,125.742" style="stroke: #808285; stroke-width: 1.0;"/><text fill="#000000" font-family="sans-serif" font-size="13" lengthAdjust="spacingAndGlyphs" textLength="40" x="115" y="92.5684">render</text><path d="M59.3293,162.238 C57.4042,182.1026 54.2363,214.7892 52.1342,236.4792 " fill="none" style="stroke: #808285; stroke-width: 1.0;"/><polygon fill="#808285" points="51.6503,241.4715,56.5,232.8994,52.1327,236.4948,48.5373,232.1276,51.6503,241.4715" style="stroke: #808285; stroke-width: 1.0;"/><text fill="#000000" font-family="sans-serif" font-size="13" lengthAdjust="spacingAndGlyphs" textLength="40" x="58" y="205.5684">render</text><path d="M166.354,46.582 C162.737,60.803 160.194,81.068 169,96 C175.806,107.54 186.575,116.445 198.191,123.238 " fill="none" style="stroke: #808285; stroke-width: 1.0;"/><polygon fill="#808285" points="202.855,125.832,196.9363,117.96,198.4861,123.4004,193.0457,124.9502,202.855,125.832" style="stroke: #808285; stroke-width: 1.0;"/><text fill="#000000" font-family="sans-serif" font-size="13" lengthAdjust="spacingAndGlyphs" textLength="40" x="170" y="92.5684">render</text><path d="M244.642,125.928 C237.168,112.74 226.135,94.231 215,79 C207.956,69.365 199.47,59.32 191.904,50.816 " fill="none" style="stroke: #808285; stroke-width: 1.0; stroke-dasharray: 7.0,7.0;"/><polygon fill="#808285" points="188.274,46.774,191.3086,56.1437,191.6137,50.4951,197.2623,50.8002,188.274,46.774" style="stroke: #808285; stroke-width: 1.0;"/><text fill="#000000" font-family="sans-serif" font-size="13" lengthAdjust="spacingAndGlyphs" textLength="220" x="228" y="92.5684">onCommentSubmit&lt;Author, Text&gt;</text></g></svg>