<?xml version="1.0" encoding="UTF-8" standalone="yes"?><svg xmlns="http://www.w3.org/2000/svg" xmlns:xlink="http://www.w3.org/1999/xlink" height="365px" style="width:542px;height:365px;" version="1.1" viewBox="0 0 542 365" width="542px"><defs/><g><polygon fill="#FFCC00" points="381,8,381,48.6211,537,48.6211,537,18,527,8,381,8" style="stroke: #FF6665; stroke-width: 1.0;"/><polygon fill="#FFCC00" points="381,8,381,24.5,311.25,28.5,381,32.5,381,48.6211,537,48.6211,537,18,527,8,381,8" style="stroke: #FF6665; stroke-width: 1.0;"/><line style="stroke: #FF6665; stroke-width: 1.0;" x1="527" x2="527" y1="8" y2="18"/><line style="stroke: #FF6665; stroke-width: 1.0;" x1="537" x2="527" y1="18" y2="18"/><text fill="#000000" font-family="sans-serif" font-size="13" lengthAdjust="spacingAndGlyphs" textLength="135" x="387" y="25.5684">Creates and connects</text><text fill="#000000" font-family="sans-serif" font-size="13" lengthAdjust="spacingAndGlyphs" textLength="121" x="391" y="40.8789">all the components</text><polygon fill="#FFCC00" points="364.5,110,364.5,165.9316,541.5,165.9316,541.5,120,531.5,110,364.5,110" style="stroke: #FF6665; stroke-width: 1.0;"/><polygon fill="#FFCC00" points="364.5,110,364.5,134,295.201,138,364.5,142,364.5,165.9316,541.5,165.9316,541.5,120,531.5,110,364.5,110" style="stroke: #FF6665; stroke-width: 1.0;"/><line style="stroke: #FF6665; stroke-width: 1.0;" x1="531.5" x2="531.5" y1="110" y2="120"/><line style="stroke: #FF6665; stroke-width: 1.0;" x1="541.5" x2="531.5" y1="120" y2="120"/><text fill="#000000" font-family="sans-serif" font-size="13" lengthAdjust="spacingAndGlyphs" textLength="78" x="370.5" y="127.5684">Maps URL to</text><text fill="#000000" font-family="sans-serif" font-size="13" lengthAdjust="spacingAndGlyphs" textLength="152" x="374.5" y="142.8789">Controller and Template</text><text fill="#000000" font-family="sans-serif" font-size="13" lengthAdjust="spacingAndGlyphs" textLength="143" x="374.5" y="158.1895">that two-way bounded</text><polygon fill="#FFCC00" points="6,324,6,364.6211,204,364.6211,204,334,194,324,6,324" style="stroke: #FF6665; stroke-width: 1.0;"/><polygon fill="#FFCC00" points="6,324,6,364.6211,204,364.6211,204,334,194,324,109,324,105,263.431,101,324,6,324" style="stroke: #FF6665; stroke-width: 1.0;"/><line style="stroke: #FF6665; stroke-width: 1.0;" x1="194" x2="194" y1="324" y2="334"/><line style="stroke: #FF6665; stroke-width: 1.0;" x1="204" x2="194" y1="334" y2="334"/><text fill="#000000" font-family="sans-serif" font-size="13" lengthAdjust="spacingAndGlyphs" textLength="90" x="12" y="341.5684">Business logic</text><text fill="#000000" font-family="sans-serif" font-size="13" lengthAdjust="spacingAndGlyphs" textLength="173" x="16" y="356.8789">Manipulations with a Model</text><polygon fill="#FFCC00" points="321,324,321,364.6211,519,364.6211,519,334,509,324,321,324" style="stroke: #FF6665; stroke-width: 1.0;"/><polygon fill="#FFCC00" points="321,324,321,364.6211,519,364.6211,519,334,509,324,424,324,420,263.431,416,324,321,324" style="stroke: #FF6665; stroke-width: 1.0;"/><line style="stroke: #FF6665; stroke-width: 1.0;" x1="509" x2="509" y1="324" y2="334"/><line style="stroke: #FF6665; stroke-width: 1.0;" x1="519" x2="509" y1="334" y2="334"/><text fill="#000000" font-family="sans-serif" font-size="13" lengthAdjust="spacingAndGlyphs" textLength="129" x="327" y="341.5684">Representation logic</text><text fill="#000000" font-family="sans-serif" font-size="13" lengthAdjust="spacingAndGlyphs" textLength="173" x="331" y="356.8789">Manipulations with a Model</text><rect fill="#FFFFFF" height="36.4883" style="stroke: #FD891C; stroke-width: 1.5;" width="98" x="213" y="10.5"/><rect fill="#FFFFFF" height="5" style="stroke: #FD891C; stroke-width: 1.5;" width="10" x="208" y="15.5"/><rect fill="#FFFFFF" height="5" style="stroke: #FD891C; stroke-width: 1.5;" width="10" x="208" y="36.9883"/><text fill="#000000" font-family="sans-serif" font-size="14" lengthAdjust="spacingAndGlyphs" textLength="78" x="223" y="34.0352">Application</text><rect fill="#FFFFFF" height="36.4883" style="stroke: #FD891C; stroke-width: 1.5;" width="66" x="229" y="120"/><rect fill="#FFFFFF" height="5" style="stroke: #FD891C; stroke-width: 1.5;" width="10" x="224" y="125"/><rect fill="#FFFFFF" height="5" style="stroke: #FD891C; stroke-width: 1.5;" width="10" x="224" y="146.4883"/><text fill="#000000" font-family="sans-serif" font-size="14" lengthAdjust="spacingAndGlyphs" textLength="46" x="239" y="143.5352">Router</text><rect fill="#FFFFFF" height="36.4883" style="stroke: #FD891C; stroke-width: 1.5;" width="111" x="49.5" y="227"/><rect fill="#FFFFFF" height="5" style="stroke: #FD891C; stroke-width: 1.5;" width="10" x="44.5" y="232"/><rect fill="#FFFFFF" height="5" style="stroke: #FD891C; stroke-width: 1.5;" width="10" x="44.5" y="253.4883"/><text fill="#000000" font-family="sans-serif" font-size="14" lengthAdjust="spacingAndGlyphs" textLength="91" x="59.5" y="250.5352">PhoneListCtrl</text><rect fill="#FFFFFF" height="36.4883" style="stroke: #FD891C; stroke-width: 1.5;" width="169" x="335.5" y="227"/><rect fill="#FFFFFF" height="5" style="stroke: #FD891C; stroke-width: 1.5;" width="10" x="330.5" y="232"/><rect fill="#FFFFFF" height="5" style="stroke: #FD891C; stroke-width: 1.5;" width="10" x="330.5" y="253.4883"/><text fill="#000000" font-family="sans-serif" font-size="14" lengthAdjust="spacingAndGlyphs" textLength="149" x="345.5" y="250.5352">catalogTemplate.html</text><path d="M262,46.772 C262,65.187 262,94.418 262,114.594 " fill="none" style="stroke: #808285; stroke-width: 1.0;"/><polygon fill="#808285" points="262,119.771,266,110.771,262,114.771,258,110.771,262,119.771" style="stroke: #808285; stroke-width: 1.0;"/><path d="M236.426,156.104 C208.599,174.714 164.165,204.431 134.785,224.08 " fill="none" style="stroke: #808285; stroke-width: 1.0;"/><polygon fill="#808285" points="130.563,226.904,140.2683,225.2284,134.72,224.1256,135.8228,218.5772,130.563,226.904" style="stroke: #808285; stroke-width: 1.0;"/><path d="M287.737,156.104 C315.741,174.714 360.459,204.431 390.025,224.08 " fill="none" style="stroke: #808285; stroke-width: 1.0;"/><polygon fill="#808285" points="394.274,226.904,388.9918,218.5914,390.1096,224.1368,384.5643,225.2545,394.274,226.904" style="stroke: #808285; stroke-width: 1.0;"/><path d="M165.776,245 C212.445,245 277.601,245 330.267,245 " fill="none" style="stroke: #808285; stroke-width: 1.0; stroke-dasharray: 7.0,7.0;"/><polygon fill="#808285" points="335.324,245,326.324,241,330.324,245,326.324,249,335.324,245" style="stroke: #808285; stroke-width: 1.0;"/><polygon fill="#808285" points="160.591,245,169.591,249,165.591,245,169.591,241,160.591,245" style="stroke: #808285; stroke-width: 1.0;"/><text fill="#000000" font-family="sans-serif" font-size="13" lengthAdjust="spacingAndGlyphs" textLength="138" x="179" y="238.5684">two-way data binding</text></g></svg>