<?xml version="1.0" encoding="UTF-8" standalone="yes"?><svg xmlns="http://www.w3.org/2000/svg" xmlns:xlink="http://www.w3.org/1999/xlink" height="268px" style="width:997px;height:268px;" version="1.1" viewBox="0 0 997 268" width="997px"><defs/><g><polygon fill="#FBFB77" points="536,8,536,48.6211,692,48.6211,692,18,682,8,536,8" style="stroke: #A80036; stroke-width: 1.0;"/><polygon fill="#FBFB77" points="536,8,536,24.5,466.25,28.5,536,32.5,536,48.6211,692,48.6211,692,18,682,8,536,8" style="stroke: #A80036; stroke-width: 1.0;"/><line style="stroke: #A80036; stroke-width: 1.0;" x1="682" x2="682" y1="8" y2="18"/><line style="stroke: #A80036; stroke-width: 1.0;" x1="692" x2="682" y1="18" y2="18"/><text fill="#000000" font-family="sans-serif" font-size="13" lengthAdjust="spacingAndGlyphs" textLength="135" x="542" y="25.5684">Creates and connects</text><text fill="#000000" font-family="sans-serif" font-size="13" lengthAdjust="spacingAndGlyphs" textLength="121" x="546" y="40.8789">all the components</text><polygon fill="#FBFB77" points="519.5,110,519.5,165.9316,696.5,165.9316,696.5,120,686.5,110,519.5,110" style="stroke: #A80036; stroke-width: 1.0;"/><polygon fill="#FBFB77" points="519.5,110,519.5,134,450.201,138,519.5,142,519.5,165.9316,696.5,165.9316,696.5,120,686.5,110,519.5,110" style="stroke: #A80036; stroke-width: 1.0;"/><line style="stroke: #A80036; stroke-width: 1.0;" x1="686.5" x2="686.5" y1="110" y2="120"/><line style="stroke: #A80036; stroke-width: 1.0;" x1="696.5" x2="686.5" y1="120" y2="120"/><text fill="#000000" font-family="sans-serif" font-size="13" lengthAdjust="spacingAndGlyphs" textLength="78" x="525.5" y="127.5684">Maps URL to</text><text fill="#000000" font-family="sans-serif" font-size="13" lengthAdjust="spacingAndGlyphs" textLength="152" x="529.5" y="142.8789">Controller and Template</text><text fill="#000000" font-family="sans-serif" font-size="13" lengthAdjust="spacingAndGlyphs" textLength="143" x="529.5" y="158.1895">that two-way bounded</text><polygon fill="#FBFB77" points="6,227,6,267.6211,204,267.6211,204,237,194,227,6,227" style="stroke: #A80036; stroke-width: 1.0;"/><polygon fill="#FBFB77" points="6,227,6,267.6211,204,267.6211,204,251.5,273.475,247.5,204,243.5,204,237,194,227,6,227" style="stroke: #A80036; stroke-width: 1.0;"/><line style="stroke: #A80036; stroke-width: 1.0;" x1="194" x2="194" y1="227" y2="237"/><line style="stroke: #A80036; stroke-width: 1.0;" x1="204" x2="194" y1="237" y2="237"/><text fill="#000000" font-family="sans-serif" font-size="13" lengthAdjust="spacingAndGlyphs" textLength="90" x="12" y="244.5684">Business logic</text><text fill="#000000" font-family="sans-serif" font-size="13" lengthAdjust="spacingAndGlyphs" textLength="173" x="16" y="259.8789">Manipulations with a Model</text><polygon fill="#FBFB77" points="798,227,798,267.6211,996,267.6211,996,237,986,227,798,227" style="stroke: #A80036; stroke-width: 1.0;"/><polygon fill="#FBFB77" points="798,227,798,243.5,728.992,247.5,798,251.5,798,267.6211,996,267.6211,996,237,986,227,798,227" style="stroke: #A80036; stroke-width: 1.0;"/><line style="stroke: #A80036; stroke-width: 1.0;" x1="986" x2="986" y1="227" y2="237"/><line style="stroke: #A80036; stroke-width: 1.0;" x1="996" x2="986" y1="237" y2="237"/><text fill="#000000" font-family="sans-serif" font-size="13" lengthAdjust="spacingAndGlyphs" textLength="129" x="804" y="244.5684">Representation logic</text><text fill="#000000" font-family="sans-serif" font-size="13" lengthAdjust="spacingAndGlyphs" textLength="173" x="808" y="259.8789">Manipulations with a Model</text><rect fill="#FEFECE" height="36.4883" style="stroke: #808080; stroke-width: 1.5;" width="98" x="368" y="10.5"/><rect fill="#FEFECE" height="5" style="stroke: #808080; stroke-width: 1.5;" width="10" x="363" y="15.5"/><rect fill="#FEFECE" height="5" style="stroke: #808080; stroke-width: 1.5;" width="10" x="363" y="36.9883"/><text fill="#000000" font-family="sans-serif" font-size="14" lengthAdjust="spacingAndGlyphs" textLength="78" x="378" y="34.0352">Application</text><rect fill="#FEFECE" height="36.4883" style="stroke: #808080; stroke-width: 1.5;" width="66" x="384" y="120"/><rect fill="#FEFECE" height="5" style="stroke: #808080; stroke-width: 1.5;" width="10" x="379" y="125"/><rect fill="#FEFECE" height="5" style="stroke: #808080; stroke-width: 1.5;" width="10" x="379" y="146.4883"/><text fill="#000000" font-family="sans-serif" font-size="14" lengthAdjust="spacingAndGlyphs" textLength="46" x="394" y="143.5352">Router</text><rect fill="#FEFECE" height="36.4883" style="stroke: #808080; stroke-width: 1.5;" width="111" x="273.5" y="229.5"/><rect fill="#FEFECE" height="5" style="stroke: #808080; stroke-width: 1.5;" width="10" x="268.5" y="234.5"/><rect fill="#FEFECE" height="5" style="stroke: #808080; stroke-width: 1.5;" width="10" x="268.5" y="255.9883"/><text fill="#000000" font-family="sans-serif" font-size="14" lengthAdjust="spacingAndGlyphs" textLength="91" x="283.5" y="253.0352">PhoneListCtrl</text><rect fill="#FEFECE" height="36.4883" style="stroke: #808080; stroke-width: 1.5;" width="169" x="559.5" y="229.5"/><rect fill="#FEFECE" height="5" style="stroke: #808080; stroke-width: 1.5;" width="10" x="554.5" y="234.5"/><rect fill="#FEFECE" height="5" style="stroke: #808080; stroke-width: 1.5;" width="10" x="554.5" y="255.9883"/><text fill="#000000" font-family="sans-serif" font-size="14" lengthAdjust="spacingAndGlyphs" textLength="149" x="569.5" y="253.0352">catalogTemplate.html</text><path d="M417,46.772 C417,65.187 417,94.418 417,114.594 " fill="none" style="stroke: #808080; stroke-width: 1.0;"/><polygon fill="#808080" points="417,119.771,421,110.771,417,114.771,413,110.771,417,119.771" style="stroke: #808080; stroke-width: 1.0;"/><path d="M402.861,156.272 C387.466,175.0786 362.836,205.1669 346.298,225.3688 " fill="none" style="stroke: #808080; stroke-width: 1.0;"/><polygon fill="#808080" points="343.104,229.2711,351.9003,224.8411,346.2714,225.4023,345.7102,219.7733,343.104,229.2711" style="stroke: #808080; stroke-width: 1.0;"/><path d="M450.008,154.631 C490.583,173.8467 559.435,206.4527 603.262,227.2079 " fill="none" style="stroke: #808080; stroke-width: 1.0;"/><polygon fill="#808080" points="607.951,229.4283,601.529,221.9612,603.4321,227.2883,598.105,229.1914,607.951,229.4283" style="stroke: #808080; stroke-width: 1.0;"/><path d="M389.776,247.5 C436.445,247.5 501.601,247.5 554.267,247.5 " fill="none" style="stroke: #808080; stroke-width: 1.0; stroke-dasharray: 7.0,7.0;"/><polygon fill="#808080" points="559.324,247.5,550.324,243.5,554.324,247.5,550.324,251.5,559.324,247.5" style="stroke: #808080; stroke-width: 1.0;"/><polygon fill="#808080" points="384.591,247.5,393.591,251.5,389.591,247.5,393.591,243.5,384.591,247.5" style="stroke: #808080; stroke-width: 1.0;"/><text fill="#000000" font-family="sans-serif" font-size="13" lengthAdjust="spacingAndGlyphs" textLength="138" x="403" y="241.0684">two-way data binding</text></g></svg>