<?xml version="1.0" encoding="UTF-8" standalone="yes"?><svg xmlns="http://www.w3.org/2000/svg" xmlns:xlink="http://www.w3.org/1999/xlink" height="557px" style="width:441px;height:557px;" version="1.1" viewBox="0 0 441 557" width="441px"><defs/><g><polygon fill="#FBFB77" points="6,218.5,6,243.8105,169,243.8105,169,228.5,159,218.5,6,218.5" style="stroke: #A80036; stroke-width: 1.0;"/><polygon fill="#FBFB77" points="6,218.5,6,243.8105,169,243.8105,169,228.5,159,218.5,98.0165,218.5,155.99,108.002,90.0165,218.5,6,218.5" style="stroke: #A80036; stroke-width: 1.0;"/><line style="stroke: #A80036; stroke-width: 1.0;" x1="159" x2="159" y1="218.5" y2="228.5"/><line style="stroke: #A80036; stroke-width: 1.0;" x1="169" x2="159" y1="228.5" y2="228.5"/><text fill="#000000" font-family="sans-serif" font-size="13" lengthAdjust="spacingAndGlyphs" textLength="142" x="12" y="236.0684">Maps URL to App state</text><polygon fill="#FBFB77" points="57,377,57,417.6211,198,417.6211,198,387,188,377,57,377" style="stroke: #A80036; stroke-width: 1.0;"/><polygon fill="#FBFB77" points="57,377,57,417.6211,198,417.6211,198,387,188,377,149.829,377,222.657,294.19,141.829,377,57,377" style="stroke: #A80036; stroke-width: 1.0;"/><line style="stroke: #A80036; stroke-width: 1.0;" x1="188" x2="188" y1="377" y2="387"/><line style="stroke: #A80036; stroke-width: 1.0;" x1="198" x2="188" y1="387" y2="387"/><text fill="#000000" font-family="sans-serif" font-size="13" lengthAdjust="spacingAndGlyphs" textLength="120" x="63" y="394.5684">Contains App state</text><text fill="#000000" font-family="sans-serif" font-size="13" lengthAdjust="spacingAndGlyphs" textLength="85" x="63" y="409.8789">and user data</text><polygon fill="#FBFB77" points="170,501,170,556.9316,391,556.9316,391,511,381,501,170,501" style="stroke: #A80036; stroke-width: 1.0;"/><polygon fill="#FBFB77" points="170,501,170,556.9316,391,556.9316,391,511,381,501,284.5,501,280.5,441.262,276.5,501,170,501" style="stroke: #A80036; stroke-width: 1.0;"/><line style="stroke: #A80036; stroke-width: 1.0;" x1="381" x2="381" y1="501" y2="511"/><line style="stroke: #A80036; stroke-width: 1.0;" x1="391" x2="381" y1="511" y2="511"/><text fill="#000000" font-family="sans-serif" font-size="13" lengthAdjust="spacingAndGlyphs" textLength="191" x="176" y="518.5684">Choose current representation</text><text fill="#000000" font-family="sans-serif" font-size="13" lengthAdjust="spacingAndGlyphs" textLength="141" x="176" y="533.8789">dependin on the state,</text><text fill="#000000" font-family="sans-serif" font-size="13" lengthAdjust="spacingAndGlyphs" textLength="200" x="176" y="549.1895">setup and interacting with DOM</text><rect fill="#FEFECE" height="99.8203" style="stroke: #808080; stroke-width: 1.5;" width="102" x="132.5" y="8"/><ellipse cx="161.9" cy="24" fill="#ADD1B2" rx="11" ry="11" style="stroke: #808080; stroke-width: 1.0;"/><path d="M164.8731,29.6431 Q164.2921,29.9419 163.6529,30.0913 Q163.0138,30.2407 162.3082,30.2407 Q159.8014,30.2407 158.4815,28.5889 Q157.1617,26.937 157.1617,23.8159 Q157.1617,20.6865 158.4815,19.0347 Q159.8014,17.3828 162.3082,17.3828 Q163.0138,17.3828 163.6612,17.5322 Q164.3087,17.6816 164.8731,17.9805 L164.8731,20.7031 Q164.2423,20.1221 163.6488,19.8523 Q163.0553,19.5825 162.4244,19.5825 Q161.0797,19.5825 160.3949,20.6492 Q159.7101,21.7158 159.7101,23.8159 Q159.7101,25.9077 160.3949,26.9744 Q161.0797,28.041 162.4244,28.041 Q163.0553,28.041 163.6488,27.7712 Q164.2423,27.5015 164.8731,26.9204 Z "/><text fill="#000000" font-family="sans-serif" font-size="12" lengthAdjust="spacingAndGlyphs" textLength="38" x="179.1" y="28.5352">Router</text><line style="stroke: #808080; stroke-width: 1.5;" x1="133.5" x2="233.5" y1="40" y2="40"/><rect fill="none" height="6" style="stroke: #C82930; stroke-width: 1.0;" width="6" x="140.5" y="48.9775"/><text fill="#000000" font-family="sans-serif" font-size="11" lengthAdjust="spacingAndGlyphs" textLength="35" x="152.5" y="54.6348">routes</text><line style="stroke: #808080; stroke-width: 1.5;" x1="133.5" x2="233.5" y1="60.9551" y2="60.9551"/><rect fill="#F24D5C" height="6" style="stroke: #C82930; stroke-width: 1.0;" width="6" x="140.5" y="69.9326"/><text fill="#000000" font-family="sans-serif" font-size="11" lengthAdjust="spacingAndGlyphs" textLength="58" x="152.5" y="75.5898">gotoStart()</text><rect fill="#F24D5C" height="6" style="stroke: #C82930; stroke-width: 1.0;" width="6" x="140.5" y="82.8877"/><text fill="#000000" font-family="sans-serif" font-size="11" lengthAdjust="spacingAndGlyphs" textLength="76" x="152.5" y="88.5449">gotoSuccess()</text><rect fill="#F24D5C" height="6" style="stroke: #C82930; stroke-width: 1.0;" width="6" x="140.5" y="95.8428"/><text fill="#000000" font-family="sans-serif" font-size="11" lengthAdjust="spacingAndGlyphs" textLength="61" x="152.5" y="101.5">gotoError()</text><rect fill="#FEFECE" height="125.7305" style="stroke: #808080; stroke-width: 1.5;" width="153" x="204" y="168"/><ellipse cx="234.3" cy="184" fill="#ADD1B2" rx="11" ry="11" style="stroke: #808080; stroke-width: 1.0;"/><path d="M237.2731,189.6431 Q236.6921,189.9419 236.0529,190.0913 Q235.4138,190.2407 234.7082,190.2407 Q232.2014,190.2407 230.8815,188.5889 Q229.5617,186.937 229.5617,183.8159 Q229.5617,180.6865 230.8815,179.0347 Q232.2014,177.3828 234.7082,177.3828 Q235.4138,177.3828 236.0612,177.5322 Q236.7087,177.6816 237.2731,177.9805 L237.2731,180.7031 Q236.6423,180.1221 236.0488,179.8523 Q235.4553,179.5825 234.8244,179.5825 Q233.4797,179.5825 232.7949,180.6492 Q232.1101,181.7158 232.1101,183.8159 Q232.1101,185.9077 232.7949,186.9744 Q233.4797,188.041 234.8244,188.041 Q235.4553,188.041 236.0488,187.7712 Q236.6423,187.5015 237.2731,186.9204 Z "/><text fill="#000000" font-family="sans-serif" font-size="12" lengthAdjust="spacingAndGlyphs" textLength="87" x="251.7" y="188.5352">AppStateModel</text><line style="stroke: #808080; stroke-width: 1.5;" x1="205" x2="356" y1="200" y2="200"/><rect fill="none" height="6" style="stroke: #C82930; stroke-width: 1.0;" width="6" x="212" y="208.9775"/><text fill="#000000" font-family="sans-serif" font-size="11" lengthAdjust="spacingAndGlyphs" textLength="26" x="224" y="214.6348">state</text><rect fill="none" height="6" style="stroke: #C82930; stroke-width: 1.0;" width="6" x="212" y="221.9326"/><text fill="#000000" font-family="sans-serif" font-size="11" lengthAdjust="spacingAndGlyphs" textLength="54" x="224" y="227.5898">userName</text><rect fill="none" height="6" style="stroke: #C82930; stroke-width: 1.0;" width="6" x="212" y="234.8877"/><text fill="#000000" font-family="sans-serif" font-size="11" lengthAdjust="spacingAndGlyphs" textLength="94" x="224" y="240.5449">correctNamesList</text><line style="stroke: #808080; stroke-width: 1.5;" x1="205" x2="356" y1="246.8652" y2="246.8652"/><ellipse cx="215" cy="258.8428" fill="#84BE84" rx="3" ry="3" style="stroke: #038048; stroke-width: 1.0;"/><text fill="#000000" font-family="sans-serif" font-size="11" lengthAdjust="spacingAndGlyphs" textLength="53" x="224" y="261.5">set(fields)</text><ellipse cx="215" cy="271.7979" fill="#84BE84" rx="3" ry="3" style="stroke: #038048; stroke-width: 1.0;"/><text fill="#000000" font-family="sans-serif" font-size="11" lengthAdjust="spacingAndGlyphs" textLength="48" x="224" y="274.4551">get(field)</text><ellipse cx="215" cy="284.7529" fill="#84BE84" rx="3" ry="3" style="stroke: #038048; stroke-width: 1.0;"/><text fill="#000000" font-family="sans-serif" font-size="11" lengthAdjust="spacingAndGlyphs" textLength="127" x="224" y="287.4102">isNameValid(userName)</text><rect fill="#FEFECE" height="86.8652" style="stroke: #808080; stroke-width: 1.5;" width="95" x="233" y="354"/><ellipse cx="264.2" cy="370" fill="#ADD1B2" rx="11" ry="11" style="stroke: #808080; stroke-width: 1.0;"/><path d="M267.1731,375.6431 Q266.5921,375.9419 265.9529,376.0913 Q265.3138,376.2407 264.6082,376.2407 Q262.1014,376.2407 260.7815,374.5889 Q259.4617,372.937 259.4617,369.8159 Q259.4617,366.6865 260.7815,365.0347 Q262.1014,363.3828 264.6082,363.3828 Q265.3138,363.3828 265.9612,363.5322 Q266.6087,363.6816 267.1731,363.9805 L267.1731,366.7031 Q266.5423,366.1221 265.9488,365.8523 Q265.3553,365.5825 264.7244,365.5825 Q263.3797,365.5825 262.6949,366.6492 Q262.0101,367.7158 262.0101,369.8159 Q262.0101,371.9077 262.6949,372.9744 Q263.3797,374.041 264.7244,374.041 Q265.3553,374.041 265.9488,373.7712 Q266.5423,373.5015 267.1731,372.9204 Z "/><text fill="#000000" font-family="sans-serif" font-size="12" lengthAdjust="spacingAndGlyphs" textLength="27" x="281.8" y="374.5352">View</text><line style="stroke: #808080; stroke-width: 1.5;" x1="234" x2="327" y1="386" y2="386"/><rect fill="none" height="6" style="stroke: #C82930; stroke-width: 1.0;" width="6" x="241" y="394.9775"/><text fill="#000000" font-family="sans-serif" font-size="11" lengthAdjust="spacingAndGlyphs" textLength="52" x="253" y="400.6348">templates</text><line style="stroke: #808080; stroke-width: 1.5;" x1="234" x2="327" y1="406.9551" y2="406.9551"/><ellipse cx="244" cy="418.9326" fill="#84BE84" rx="3" ry="3" style="stroke: #038048; stroke-width: 1.0;"/><text fill="#000000" font-family="sans-serif" font-size="11" lengthAdjust="spacingAndGlyphs" textLength="44" x="253" y="421.5898">render()</text><rect fill="#F24D5C" height="6" style="stroke: #C82930; stroke-width: 1.0;" width="6" x="241" y="428.8877"/><text fill="#000000" font-family="sans-serif" font-size="11" lengthAdjust="spacingAndGlyphs" textLength="69" x="253" y="434.5449">checkName()</text><path d="M211.296,108.002 C221.05,125.197 232.18,144.817 242.619,163.221 " fill="none" style="stroke: #808080; stroke-width: 1.0;"/><polygon fill="#808080" points="245.257,167.871,244.2949,158.0692,242.7897,163.5222,237.3368,162.0169,245.257,167.871" style="stroke: #808080; stroke-width: 1.0;"/><text fill="#000000" font-family="sans-serif" font-size="13" lengthAdjust="spacingAndGlyphs" textLength="54" x="184.0602" y="157.3064">set state</text><path d="M267.938,299.337 C267.47,317.694 267.875,337.076 269.152,353.659 " fill="none" style="stroke: #808080; stroke-width: 1.0;"/><polygon fill="#808080" points="268.093,294.19,263.8223,303.0648,267.9416,299.1877,271.8186,303.307,268.093,294.19" style="stroke: #808080; stroke-width: 1.0;"/><text fill="#000000" font-family="sans-serif" font-size="13" lengthAdjust="spacingAndGlyphs" textLength="84" x="176.9831" y="343.3999">set username</text><path d="M293.637,294.19 C294.3,312.165 294.055,331.501 292.903,348.472 " fill="none" style="stroke: #808080; stroke-width: 1.0; stroke-dasharray: 7.0,7.0;"/><polygon fill="#808080" points="292.516,353.659,297.1761,344.9824,292.8889,348.6729,289.1983,344.3858,292.516,353.659" style="stroke: #808080; stroke-width: 1.0;"/><text fill="#000000" font-family="sans-serif" font-size="13" lengthAdjust="spacingAndGlyphs" textLength="136" x="304.7685" y="343.3999">listen to state change</text></g></svg>