<?xml version="1.0" encoding="UTF-8" standalone="yes"?><svg xmlns="http://www.w3.org/2000/svg" xmlns:xlink="http://www.w3.org/1999/xlink" height="280px" style="width:511px;height:280px;" version="1.1" viewBox="0 0 511 280" width="511px"><defs/><g><polygon fill="#FBFB77" points="310.5,8,310.5,48.6211,510.5,48.6211,510.5,18,500.5,8,310.5,8" style="stroke: #A80036; stroke-width: 1.0;"/><polygon fill="#FBFB77" points="310.5,8,310.5,24.5,241.441,28.5,310.5,32.5,310.5,48.6211,510.5,48.6211,510.5,18,500.5,8,310.5,8" style="stroke: #A80036; stroke-width: 1.0;"/><line style="stroke: #A80036; stroke-width: 1.0;" x1="500.5" x2="500.5" y1="8" y2="18"/><line style="stroke: #A80036; stroke-width: 1.0;" x1="510.5" x2="500.5" y1="18" y2="18"/><text fill="#000000" font-family="sans-serif" font-size="13" lengthAdjust="spacingAndGlyphs" textLength="179" x="316.5" y="25.5684">Root component that handle</text><text fill="#000000" font-family="sans-serif" font-size="13" lengthAdjust="spacingAndGlyphs" textLength="115" x="320.5" y="40.8789">comment addition</text><polygon fill="#FBFB77" points="128.5,239,128.5,279.6211,418.5,279.6211,418.5,249,408.5,239,128.5,239" style="stroke: #A80036; stroke-width: 1.0;"/><polygon fill="#FBFB77" points="128.5,239,128.5,279.6211,418.5,279.6211,418.5,249,408.5,239,276.285,239,267.563,162.238,268.285,239,128.5,239" style="stroke: #A80036; stroke-width: 1.0;"/><line style="stroke: #A80036; stroke-width: 1.0;" x1="408.5" x2="408.5" y1="239" y2="249"/><line style="stroke: #A80036; stroke-width: 1.0;" x1="418.5" x2="408.5" y1="249" y2="249"/><text fill="#000000" font-family="sans-serif" font-size="13" lengthAdjust="spacingAndGlyphs" textLength="269" x="134.5" y="256.5684">Call submit callback on DOM submit event</text><text fill="#000000" font-family="sans-serif" font-size="13" lengthAdjust="spacingAndGlyphs" textLength="171" x="138.5" y="271.8789">and push a data to the root</text><rect fill="#FEFECE" height="36.4883" style="stroke: #808080; stroke-width: 1.5;" width="113" x="128" y="10.5"/><rect fill="#FEFECE" height="5" style="stroke: #808080; stroke-width: 1.5;" width="10" x="123" y="15.5"/><rect fill="#FEFECE" height="5" style="stroke: #808080; stroke-width: 1.5;" width="10" x="123" y="36.9883"/><text fill="#000000" font-family="sans-serif" font-size="14" lengthAdjust="spacingAndGlyphs" textLength="93" x="138" y="34.0352">CommentBox</text><rect fill="#FEFECE" height="36.4883" style="stroke: #808080; stroke-width: 1.5;" width="110" x="9.5" y="126"/><rect fill="#FEFECE" height="5" style="stroke: #808080; stroke-width: 1.5;" width="10" x="4.5" y="131"/><rect fill="#FEFECE" height="5" style="stroke: #808080; stroke-width: 1.5;" width="10" x="4.5" y="152.4883"/><text fill="#000000" font-family="sans-serif" font-size="14" lengthAdjust="spacingAndGlyphs" textLength="90" x="19.5" y="149.5352">CommentList</text><rect fill="#FEFECE" height="36.4883" style="stroke: #808080; stroke-width: 1.5;" width="87" x="6" y="241.5"/><rect fill="#FEFECE" height="5" style="stroke: #808080; stroke-width: 1.5;" width="10" x="1" y="246.5"/><rect fill="#FEFECE" height="5" style="stroke: #808080; stroke-width: 1.5;" width="10" x="1" y="267.9883"/><text fill="#000000" font-family="sans-serif" font-size="14" lengthAdjust="spacingAndGlyphs" textLength="67" x="16" y="265.0352">Comment</text><rect fill="#FEFECE" height="36.4883" style="stroke: #808080; stroke-width: 1.5;" width="123" x="205" y="126"/><rect fill="#FEFECE" height="5" style="stroke: #808080; stroke-width: 1.5;" width="10" x="200" y="131"/><rect fill="#FEFECE" height="5" style="stroke: #808080; stroke-width: 1.5;" width="10" x="200" y="152.4883"/><text fill="#000000" font-family="sans-serif" font-size="14" lengthAdjust="spacingAndGlyphs" textLength="103" x="215" y="149.5352">CommentForm</text><path d="M163.414,46.675 C152.224,55.992 138.371,67.855 126.5,79 C111.68,92.914 95.7383,109.407 83.7314,122.165 " fill="none" style="stroke: #808080; stroke-width: 1.0;"/><polygon fill="#808080" points="80.1371,125.997,89.2112,122.1682,83.5573,122.3498,83.3757,116.6958,80.1371,125.997" style="stroke: #808080; stroke-width: 1.0;"/><text fill="#000000" font-family="sans-serif" font-size="13" lengthAdjust="spacingAndGlyphs" textLength="40" x="127.5" y="92.5684">render</text><path d="M62.2218,162.238 C59.5966,182.1026 55.2768,214.7892 52.4102,236.4792 " fill="none" style="stroke: #808080; stroke-width: 1.0;"/><polygon fill="#808080" points="51.7505,241.4715,56.8955,233.0733,52.4058,236.5146,48.9645,232.0249,51.7505,241.4715" style="stroke: #808080; stroke-width: 1.0;"/><text fill="#000000" font-family="sans-serif" font-size="13" lengthAdjust="spacingAndGlyphs" textLength="40" x="59.5" y="205.5684">render</text><path d="M178.854,46.582 C175.237,60.803 172.694,81.068 181.5,96 C188.306,107.54 199.075,116.445 210.691,123.238 " fill="none" style="stroke: #808080; stroke-width: 1.0;"/><polygon fill="#808080" points="215.355,125.832,209.4363,117.96,210.9861,123.4004,205.5457,124.9502,215.355,125.832" style="stroke: #808080; stroke-width: 1.0;"/><text fill="#000000" font-family="sans-serif" font-size="13" lengthAdjust="spacingAndGlyphs" textLength="40" x="182.5" y="92.5684">render</text><path d="M257.142,125.928 C249.668,112.74 238.635,94.231 227.5,79 C220.456,69.365 211.97,59.32 204.404,50.816 " fill="none" style="stroke: #808080; stroke-width: 1.0; stroke-dasharray: 7.0,7.0;"/><polygon fill="#808080" points="200.774,46.774,203.8086,56.1437,204.1137,50.4951,209.7623,50.8002,200.774,46.774" style="stroke: #808080; stroke-width: 1.0;"/><text fill="#000000" font-family="sans-serif" font-size="13" lengthAdjust="spacingAndGlyphs" textLength="220" x="240.5" y="92.5684">onCommentSubmit&lt;Author, Text&gt;</text></g></svg>